# xmcd CD database file generated by Grip 3.2.0
# 
# Track frame offsets:
#       150
#       21615
#       41523
#       62780
#       77663
#       107325
#       133025
#       151045
#       167610
#       191310
#       214748
#       235323
#       261828
#       279353
#       295600
#       319308
# 
# Disc length: 4652 seconds
# 
# Revision: 3
# Processed by: cddbd v1.5.2PL0 Copyright (c) Steve Scherf et al.
# Submitted via: Grip 3.2.0
# 
DISCID=d9122a10
DTITLE=Tom Waits - Used Songs
DYEAR=2001
DGENRE=Rock
TTITLE0=Heartattack and Vine
TTITLE1=Eggs and Sausage (In a Cadillac With Susan Michelson)
TTITLE2=A Sight for Sore Eyes
TTITLE3=Whistlin' Past the Graveyard
TTITLE4=Burma Shave
TTITLE5=Step Right Up
TTITLE6=Ol' 55
TTITLE7=I Never Talk to Strangers - with Bette Midler
TTITLE8=Mr. Siegal
TTITLE9=Jersey Girl
TTITLE10=Christmas Card from a Hooker in Minneapolis
TTITLE11=Blue Valentines
TTITLE12=(Looking For) The Heart Of Saturday Night
TTITLE13=Muriel
TTITLE14=Wrong Side of the Road
TTITLE15=Tom Traubert's Blues (Four Sheets to the Wind in Copenhagen)
EXTD=
EXTT0=
EXTT1=
EXTT2=
EXTT3=
EXTT4=
EXTT5=
EXTT6=
EXTT7=
EXTT8=
EXTT9=
EXTT10=
EXTT11=
EXTT12=
EXTT13=
EXTT14=
EXTT15=
PLAYORDER=
